<mxfile host="Electron" modified="2023-12-18T13:10:53.102Z" agent="Mozilla/5.0 (Windows NT 10.0; Win64; x64) AppleWebKit/537.36 (KHTML, like Gecko) draw.io/22.1.2 Chrome/114.0.5735.289 Electron/25.9.4 Safari/537.36" etag="xSfS9BSVa0Pil-UMwwBs" version="22.1.2" type="device">
  <diagram name="Page-1" id="1KJT4ykv1rWRxnocMWuo">
    <mxGraphModel dx="733" dy="437" grid="1" gridSize="10" guides="1" tooltips="1" connect="1" arrows="1" fold="1" page="1" pageScale="1" pageWidth="1169" pageHeight="827" background="none" math="0" shadow="0">
      <root>
        <mxCell id="0" />
        <mxCell id="1" parent="0" />
        <mxCell id="x57_89_cDRPmzMDyBT9k-1" value="Control Flow Graph for kt (clean)" style="text;html=1;align=center;verticalAlign=middle;resizable=0;points=[];autosize=1;strokeColor=none;fillColor=none;" parent="1" vertex="1">
          <mxGeometry x="5" width="200" height="30" as="geometry" />
        </mxCell>
        <mxCell id="x57_89_cDRPmzMDyBT9k-7" value="" style="group" parent="1" vertex="1" connectable="0">
          <mxGeometry x="265" y="20" width="240" height="150" as="geometry" />
        </mxCell>
        <mxCell id="x57_89_cDRPmzMDyBT9k-5" value="" style="group" parent="x57_89_cDRPmzMDyBT9k-7" vertex="1" connectable="0">
          <mxGeometry x="10" y="30" width="230" height="120" as="geometry" />
        </mxCell>
        <mxCell id="x57_89_cDRPmzMDyBT9k-2" value="" style="whiteSpace=wrap;html=1;" parent="x57_89_cDRPmzMDyBT9k-5" vertex="1">
          <mxGeometry width="220" height="120" as="geometry" />
        </mxCell>
        <mxCell id="x57_89_cDRPmzMDyBT9k-4" value="&lt;div style=&quot;font-size: 10px;&quot;&gt;&lt;font face=&quot;Courier New&quot; style=&quot;font-size: 10px;&quot;&gt;100:&lt;span style=&quot;white-space: pre; font-size: 10px;&quot;&gt;&amp;nbsp;&amp;nbsp;&amp;nbsp;&amp;nbsp;&lt;/span&gt;p = n&lt;span style=&quot;white-space: pre;&quot;&gt;&#x9;&lt;/span&gt;&lt;span style=&quot;white-space: pre;&quot;&gt;&#x9;&lt;/span&gt;; L1&lt;/font&gt;&lt;/div&gt;&lt;div style=&quot;font-size: 10px;&quot;&gt;&lt;font face=&quot;Courier New&quot; style=&quot;font-size: 10px;&quot;&gt;101:&lt;span style=&quot;font-size: 10px;&quot;&gt;&lt;span style=&quot;white-space: pre; font-size: 10px;&quot;&gt;&amp;nbsp;&amp;nbsp;&amp;nbsp;&amp;nbsp;&lt;/span&gt;&lt;/span&gt;d1 = n % 10&lt;/font&gt;&lt;/div&gt;&lt;div style=&quot;font-size: 10px;&quot;&gt;&lt;font face=&quot;Courier New&quot; style=&quot;font-size: 10px;&quot;&gt;102:&lt;span style=&quot;font-size: 10px;&quot;&gt;&lt;span style=&quot;white-space: pre; font-size: 10px;&quot;&gt;&amp;nbsp;&amp;nbsp;&amp;nbsp;&amp;nbsp;&lt;/span&gt;&lt;/span&gt;n = n / 10&amp;nbsp; &amp;nbsp; &amp;nbsp; &amp;nbsp; &amp;nbsp;&lt;/font&gt;&lt;/div&gt;&lt;div style=&quot;font-size: 10px;&quot;&gt;&lt;font face=&quot;Courier New&quot; style=&quot;font-size: 10px;&quot;&gt;103:&lt;span style=&quot;font-size: 10px;&quot;&gt;&lt;span style=&quot;white-space: pre; font-size: 10px;&quot;&gt;&amp;nbsp;&amp;nbsp;&amp;nbsp;&amp;nbsp;&lt;/span&gt;&lt;/span&gt;d2 = n % 10&lt;/font&gt;&lt;/div&gt;&lt;div style=&quot;font-size: 10px;&quot;&gt;&lt;font face=&quot;Courier New&quot; style=&quot;font-size: 10px;&quot;&gt;104:&lt;span style=&quot;font-size: 10px;&quot;&gt;&lt;span style=&quot;white-space: pre; font-size: 10px;&quot;&gt;&amp;nbsp;&amp;nbsp;&amp;nbsp;&amp;nbsp;&lt;/span&gt;&lt;/span&gt;n = n / 10&amp;nbsp; &amp;nbsp; &amp;nbsp; &amp;nbsp; &amp;nbsp; &amp;nbsp;&lt;/font&gt;&lt;/div&gt;&lt;div style=&quot;font-size: 10px;&quot;&gt;&lt;font face=&quot;Courier New&quot; style=&quot;font-size: 10px;&quot;&gt;105:&lt;span style=&quot;font-size: 10px;&quot;&gt;&lt;span style=&quot;white-space: pre; font-size: 10px;&quot;&gt;&amp;nbsp;&amp;nbsp;&amp;nbsp;&amp;nbsp;&lt;/span&gt;&lt;/span&gt;if d1 &amp;gt; d2 goto 111&amp;nbsp; (B3)&lt;/font&gt;&lt;/div&gt;" style="text;html=1;align=left;verticalAlign=middle;resizable=0;points=[];autosize=1;strokeColor=none;fillColor=none;fontSize=10;" parent="x57_89_cDRPmzMDyBT9k-5" vertex="1">
          <mxGeometry x="10" y="15" width="220" height="90" as="geometry" />
        </mxCell>
        <mxCell id="x57_89_cDRPmzMDyBT9k-6" value="B1:" style="text;html=1;align=center;verticalAlign=middle;resizable=0;points=[];autosize=1;strokeColor=none;fillColor=none;" parent="x57_89_cDRPmzMDyBT9k-7" vertex="1">
          <mxGeometry width="40" height="30" as="geometry" />
        </mxCell>
        <mxCell id="x57_89_cDRPmzMDyBT9k-23" value="" style="group" parent="1" vertex="1" connectable="0">
          <mxGeometry x="255" y="435" width="250" height="140" as="geometry" />
        </mxCell>
        <mxCell id="x57_89_cDRPmzMDyBT9k-21" value="" style="whiteSpace=wrap;html=1;" parent="x57_89_cDRPmzMDyBT9k-23" vertex="1">
          <mxGeometry x="10" y="30" width="230" height="110" as="geometry" />
        </mxCell>
        <mxCell id="x57_89_cDRPmzMDyBT9k-20" value="&lt;div&gt;&lt;font face=&quot;Courier New&quot;&gt;119:&lt;span style=&quot;white-space: pre;&quot;&gt;&amp;nbsp;&amp;nbsp;&amp;nbsp;&amp;nbsp;&lt;/span&gt;t05 = &amp;amp;d1&amp;nbsp; &amp;nbsp; &amp;nbsp; &amp;nbsp; ; L5&lt;/font&gt;&lt;/div&gt;&lt;div&gt;&lt;font face=&quot;Courier New&quot;&gt;120:&lt;span style=&quot;&quot;&gt;&lt;span style=&quot;white-space: pre;&quot;&gt;&amp;nbsp;&amp;nbsp;&amp;nbsp;&amp;nbsp;&lt;/span&gt;&lt;/span&gt;t06 = &amp;amp;d2&lt;/font&gt;&lt;/div&gt;&lt;div&gt;&lt;font face=&quot;Courier New&quot;&gt;121:&lt;span style=&quot;&quot;&gt;&lt;span style=&quot;white-space: pre;&quot;&gt;&amp;nbsp;&amp;nbsp;&amp;nbsp;&amp;nbsp;&lt;/span&gt;&lt;/span&gt;param t05&lt;/font&gt;&lt;/div&gt;&lt;div&gt;&lt;font face=&quot;Courier New&quot;&gt;122:&lt;span style=&quot;&quot;&gt;&lt;span style=&quot;white-space: pre;&quot;&gt;&amp;nbsp;&amp;nbsp;&amp;nbsp;&amp;nbsp;&lt;/span&gt;&lt;/span&gt;param t06&lt;/font&gt;&lt;/div&gt;&lt;div&gt;&lt;font face=&quot;Courier New&quot;&gt;123:&lt;span style=&quot;&quot;&gt;&lt;span style=&quot;white-space: pre;&quot;&gt;&amp;nbsp;&amp;nbsp;&amp;nbsp;&amp;nbsp;&lt;/span&gt;&lt;/span&gt;call swap, 2&lt;/font&gt;&lt;/div&gt;" style="text;html=1;align=left;verticalAlign=middle;resizable=0;points=[];autosize=1;strokeColor=none;fillColor=none;" parent="x57_89_cDRPmzMDyBT9k-23" vertex="1">
          <mxGeometry x="20" y="40" width="230" height="90" as="geometry" />
        </mxCell>
        <mxCell id="x57_89_cDRPmzMDyBT9k-22" value="B5:" style="text;html=1;align=center;verticalAlign=middle;resizable=0;points=[];autosize=1;strokeColor=none;fillColor=none;" parent="x57_89_cDRPmzMDyBT9k-23" vertex="1">
          <mxGeometry width="40" height="30" as="geometry" />
        </mxCell>
        <mxCell id="x57_89_cDRPmzMDyBT9k-36" value="" style="endArrow=classic;html=1;rounded=0;entryX=0.5;entryY=0;entryDx=0;entryDy=0;" parent="1" target="x57_89_cDRPmzMDyBT9k-2" edge="1">
          <mxGeometry width="50" height="50" relative="1" as="geometry">
            <mxPoint x="385" y="10" as="sourcePoint" />
            <mxPoint x="605" y="60" as="targetPoint" />
          </mxGeometry>
        </mxCell>
        <mxCell id="x57_89_cDRPmzMDyBT9k-41" value="" style="group" parent="1" vertex="1" connectable="0">
          <mxGeometry x="240" y="180" width="280" height="90" as="geometry" />
        </mxCell>
        <mxCell id="x57_89_cDRPmzMDyBT9k-13" value="" style="whiteSpace=wrap;html=1;" parent="x57_89_cDRPmzMDyBT9k-41" vertex="1">
          <mxGeometry x="10" y="30" width="270" height="60" as="geometry" />
        </mxCell>
        <mxCell id="x57_89_cDRPmzMDyBT9k-12" value="&lt;div&gt;&lt;font face=&quot;Courier New&quot;&gt;111:&lt;span style=&quot;white-space: pre;&quot;&gt;&amp;nbsp;&amp;nbsp;&amp;nbsp;&amp;nbsp;&lt;/span&gt;d3 = n % 10&amp;nbsp; &amp;nbsp; &amp;nbsp; &amp;nbsp; &amp;nbsp; ; L3&lt;/font&gt;&lt;/div&gt;&lt;div&gt;&lt;font face=&quot;Courier New&quot;&gt;112:&lt;span style=&quot;&quot;&gt;&lt;span style=&quot;white-space: pre;&quot;&gt;&amp;nbsp;&amp;nbsp;&amp;nbsp;&amp;nbsp;&lt;/span&gt;&lt;/span&gt;if d2 &amp;gt; d3 goto 124&amp;nbsp; (B6)&lt;/font&gt;&lt;/div&gt;" style="text;html=1;align=left;verticalAlign=middle;resizable=0;points=[];autosize=1;strokeColor=none;fillColor=none;" parent="x57_89_cDRPmzMDyBT9k-41" vertex="1">
          <mxGeometry x="20" y="35" width="260" height="50" as="geometry" />
        </mxCell>
        <mxCell id="x57_89_cDRPmzMDyBT9k-14" value="B3:" style="text;html=1;align=center;verticalAlign=middle;resizable=0;points=[];autosize=1;strokeColor=none;fillColor=none;" parent="x57_89_cDRPmzMDyBT9k-41" vertex="1">
          <mxGeometry width="40" height="30" as="geometry" />
        </mxCell>
        <mxCell id="x57_89_cDRPmzMDyBT9k-42" style="edgeStyle=orthogonalEdgeStyle;rounded=0;orthogonalLoop=1;jettySize=auto;html=1;exitX=0.5;exitY=1;exitDx=0;exitDy=0;entryX=0.5;entryY=0;entryDx=0;entryDy=0;" parent="1" source="x57_89_cDRPmzMDyBT9k-13" target="x57_89_cDRPmzMDyBT9k-17" edge="1">
          <mxGeometry relative="1" as="geometry" />
        </mxCell>
        <mxCell id="x57_89_cDRPmzMDyBT9k-45" style="edgeStyle=orthogonalEdgeStyle;rounded=0;orthogonalLoop=1;jettySize=auto;html=1;exitX=0.5;exitY=1;exitDx=0;exitDy=0;entryX=0.5;entryY=0;entryDx=0;entryDy=0;" parent="1" source="x57_89_cDRPmzMDyBT9k-2" target="x57_89_cDRPmzMDyBT9k-13" edge="1">
          <mxGeometry relative="1" as="geometry" />
        </mxCell>
        <mxCell id="x57_89_cDRPmzMDyBT9k-46" style="edgeStyle=orthogonalEdgeStyle;rounded=0;orthogonalLoop=1;jettySize=auto;html=1;exitX=0.5;exitY=1;exitDx=0;exitDy=0;entryX=0;entryY=0.5;entryDx=0;entryDy=0;" parent="1" source="x57_89_cDRPmzMDyBT9k-9" target="x57_89_cDRPmzMDyBT9k-13" edge="1">
          <mxGeometry relative="1" as="geometry" />
        </mxCell>
        <mxCell id="x57_89_cDRPmzMDyBT9k-47" style="edgeStyle=orthogonalEdgeStyle;rounded=0;orthogonalLoop=1;jettySize=auto;html=1;exitX=0;exitY=0.5;exitDx=0;exitDy=0;entryX=1;entryY=0.5;entryDx=0;entryDy=0;" parent="1" source="x57_89_cDRPmzMDyBT9k-2" target="x57_89_cDRPmzMDyBT9k-9" edge="1">
          <mxGeometry relative="1" as="geometry" />
        </mxCell>
        <mxCell id="x57_89_cDRPmzMDyBT9k-48" value="" style="group" parent="1" vertex="1" connectable="0">
          <mxGeometry x="5" y="40" width="230" height="140" as="geometry" />
        </mxCell>
        <mxCell id="x57_89_cDRPmzMDyBT9k-9" value="" style="whiteSpace=wrap;html=1;" parent="x57_89_cDRPmzMDyBT9k-48" vertex="1">
          <mxGeometry x="10" y="30" width="220" height="110" as="geometry" />
        </mxCell>
        <mxCell id="x57_89_cDRPmzMDyBT9k-8" value="&lt;div&gt;&lt;font face=&quot;Courier New&quot;&gt;106:&lt;span style=&quot;white-space: pre;&quot;&gt;&amp;nbsp;&amp;nbsp;&amp;nbsp;&amp;nbsp;&lt;/span&gt;t01 = &amp;amp;d1&lt;span style=&quot;&quot;&gt;&lt;span style=&quot;white-space: pre;&quot;&gt;&amp;nbsp;&amp;nbsp;&amp;nbsp;&amp;nbsp;&lt;/span&gt;&lt;/span&gt;; L2&lt;/font&gt;&lt;/div&gt;&lt;div&gt;&lt;font face=&quot;Courier New&quot;&gt;107:&lt;span style=&quot;&quot;&gt;&lt;span style=&quot;white-space: pre;&quot;&gt;&amp;nbsp;&amp;nbsp;&amp;nbsp;&amp;nbsp;&lt;/span&gt;&lt;/span&gt;t02 = &amp;amp;d2&lt;/font&gt;&lt;/div&gt;&lt;div&gt;&lt;font face=&quot;Courier New&quot;&gt;108:&lt;span style=&quot;&quot;&gt;&lt;span style=&quot;white-space: pre;&quot;&gt;&amp;nbsp;&amp;nbsp;&amp;nbsp;&amp;nbsp;&lt;/span&gt;&lt;/span&gt;param t01&lt;/font&gt;&lt;/div&gt;&lt;div&gt;&lt;font face=&quot;Courier New&quot;&gt;109:&lt;span style=&quot;&quot;&gt;&lt;span style=&quot;white-space: pre;&quot;&gt;&amp;nbsp;&amp;nbsp;&amp;nbsp;&amp;nbsp;&lt;/span&gt;&lt;/span&gt;param t02&lt;/font&gt;&lt;/div&gt;&lt;div&gt;&lt;font face=&quot;Courier New&quot;&gt;110:&lt;span style=&quot;&quot;&gt;&lt;span style=&quot;white-space: pre;&quot;&gt;&amp;nbsp;&amp;nbsp;&amp;nbsp;&amp;nbsp;&lt;/span&gt;&lt;/span&gt;call swap, 2&lt;/font&gt;&lt;/div&gt;" style="text;html=1;align=left;verticalAlign=middle;resizable=0;points=[];autosize=1;strokeColor=none;fillColor=none;" parent="x57_89_cDRPmzMDyBT9k-48" vertex="1">
          <mxGeometry x="20" y="40" width="200" height="90" as="geometry" />
        </mxCell>
        <mxCell id="x57_89_cDRPmzMDyBT9k-10" value="B2:" style="text;html=1;align=center;verticalAlign=middle;resizable=0;points=[];autosize=1;strokeColor=none;fillColor=none;" parent="x57_89_cDRPmzMDyBT9k-48" vertex="1">
          <mxGeometry width="40" height="30" as="geometry" />
        </mxCell>
        <mxCell id="x57_89_cDRPmzMDyBT9k-49" style="edgeStyle=orthogonalEdgeStyle;rounded=0;orthogonalLoop=1;jettySize=auto;html=1;exitX=0.5;exitY=1;exitDx=0;exitDy=0;entryX=0.5;entryY=0;entryDx=0;entryDy=0;" parent="1" source="x57_89_cDRPmzMDyBT9k-17" target="x57_89_cDRPmzMDyBT9k-21" edge="1">
          <mxGeometry relative="1" as="geometry" />
        </mxCell>
        <mxCell id="x57_89_cDRPmzMDyBT9k-51" style="edgeStyle=orthogonalEdgeStyle;rounded=0;orthogonalLoop=1;jettySize=auto;html=1;exitX=0.5;exitY=1;exitDx=0;exitDy=0;entryX=0.5;entryY=0;entryDx=0;entryDy=0;" parent="1" source="x57_89_cDRPmzMDyBT9k-21" target="x57_89_cDRPmzMDyBT9k-25" edge="1">
          <mxGeometry relative="1" as="geometry" />
        </mxCell>
        <mxCell id="x57_89_cDRPmzMDyBT9k-18" value="B4:" style="text;html=1;align=center;verticalAlign=middle;resizable=0;points=[];autosize=1;strokeColor=none;fillColor=none;" parent="1" vertex="1">
          <mxGeometry x="245" y="272" width="40" height="30" as="geometry" />
        </mxCell>
        <mxCell id="x57_89_cDRPmzMDyBT9k-50" value="" style="group" parent="1" vertex="1" connectable="0">
          <mxGeometry x="255" y="302" width="270" height="130" as="geometry" />
        </mxCell>
        <mxCell id="x57_89_cDRPmzMDyBT9k-17" value="" style="whiteSpace=wrap;html=1;" parent="x57_89_cDRPmzMDyBT9k-50" vertex="1">
          <mxGeometry width="270" height="130" as="geometry" />
        </mxCell>
        <mxCell id="x57_89_cDRPmzMDyBT9k-16" value="&lt;div&gt;&lt;font face=&quot;Courier New&quot;&gt;113:&lt;span style=&quot;white-space: pre;&quot;&gt;&amp;nbsp;&amp;nbsp;&amp;nbsp;&amp;nbsp;&lt;/span&gt;t03 = &amp;amp;d2&amp;nbsp; &amp;nbsp; &amp;nbsp; &amp;nbsp; &amp;nbsp; &amp;nbsp; ; L4&lt;/font&gt;&lt;/div&gt;&lt;div&gt;&lt;font face=&quot;Courier New&quot;&gt;114:&lt;span style=&quot;&quot;&gt;&lt;span style=&quot;white-space: pre;&quot;&gt;&amp;nbsp;&amp;nbsp;&amp;nbsp;&amp;nbsp;&lt;/span&gt;&lt;/span&gt;t04 = &amp;amp;d3&lt;/font&gt;&lt;/div&gt;&lt;div&gt;&lt;font face=&quot;Courier New&quot;&gt;115:&lt;span style=&quot;&quot;&gt;&lt;span style=&quot;white-space: pre;&quot;&gt;&amp;nbsp;&amp;nbsp;&amp;nbsp;&amp;nbsp;&lt;/span&gt;&lt;/span&gt;param t03&lt;/font&gt;&lt;/div&gt;&lt;div&gt;&lt;font face=&quot;Courier New&quot;&gt;116:&lt;span style=&quot;&quot;&gt;&lt;span style=&quot;white-space: pre;&quot;&gt;&amp;nbsp;&amp;nbsp;&amp;nbsp;&amp;nbsp;&lt;/span&gt;&lt;/span&gt;param t04&lt;/font&gt;&lt;/div&gt;&lt;div&gt;&lt;font face=&quot;Courier New&quot;&gt;117:&lt;span style=&quot;&quot;&gt;&lt;span style=&quot;white-space: pre;&quot;&gt;&amp;nbsp;&amp;nbsp;&amp;nbsp;&amp;nbsp;&lt;/span&gt;&lt;/span&gt;call swap, 2&lt;/font&gt;&lt;/div&gt;&lt;div&gt;&lt;font face=&quot;Courier New&quot;&gt;118:&lt;span style=&quot;&quot;&gt;&lt;span style=&quot;white-space: pre;&quot;&gt;&amp;nbsp;&amp;nbsp;&amp;nbsp;&amp;nbsp;&lt;/span&gt;&lt;/span&gt;if d1 &amp;gt; d2 goto 124&amp;nbsp; (B6)&lt;/font&gt;&lt;/div&gt;" style="text;html=1;align=left;verticalAlign=middle;resizable=0;points=[];autosize=1;strokeColor=none;fillColor=none;" parent="x57_89_cDRPmzMDyBT9k-50" vertex="1">
          <mxGeometry x="10" y="10" width="260" height="110" as="geometry" />
        </mxCell>
        <mxCell id="x57_89_cDRPmzMDyBT9k-53" style="edgeStyle=orthogonalEdgeStyle;rounded=0;orthogonalLoop=1;jettySize=auto;html=1;exitX=0;exitY=0.5;exitDx=0;exitDy=0;entryX=0;entryY=0.5;entryDx=0;entryDy=0;" parent="1" source="x57_89_cDRPmzMDyBT9k-17" target="x57_89_cDRPmzMDyBT9k-25" edge="1">
          <mxGeometry relative="1" as="geometry">
            <Array as="points">
              <mxPoint x="200" y="367" />
              <mxPoint x="200" y="713" />
            </Array>
          </mxGeometry>
        </mxCell>
        <mxCell id="x57_89_cDRPmzMDyBT9k-26" value="B6:" style="text;html=1;align=center;verticalAlign=middle;resizable=0;points=[];autosize=1;strokeColor=none;fillColor=none;" parent="1" vertex="1">
          <mxGeometry x="230" y="583" width="40" height="30" as="geometry" />
        </mxCell>
        <mxCell id="x57_89_cDRPmzMDyBT9k-54" value="" style="group" parent="1" vertex="1" connectable="0">
          <mxGeometry x="215" y="613" width="320" height="200" as="geometry" />
        </mxCell>
        <mxCell id="x57_89_cDRPmzMDyBT9k-25" value="" style="whiteSpace=wrap;html=1;" parent="x57_89_cDRPmzMDyBT9k-54" vertex="1">
          <mxGeometry width="320" height="200" as="geometry" />
        </mxCell>
        <mxCell id="x57_89_cDRPmzMDyBT9k-24" value="&lt;div&gt;&lt;font face=&quot;Courier New&quot;&gt;124:&lt;span style=&quot;white-space: pre;&quot;&gt;&amp;nbsp;&amp;nbsp;&amp;nbsp;&amp;nbsp;&lt;/span&gt;param d1&amp;nbsp; &amp;nbsp; &amp;nbsp; &amp;nbsp; &amp;nbsp; &amp;nbsp;&lt;span style=&quot;&quot;&gt;&lt;span style=&quot;white-space: pre;&quot;&gt;&amp;nbsp;&amp;nbsp;&amp;nbsp;&amp;nbsp;&lt;/span&gt;&lt;/span&gt;; L6&lt;/font&gt;&lt;/div&gt;&lt;div&gt;&lt;font face=&quot;Courier New&quot;&gt;125:&lt;span style=&quot;&quot;&gt;&lt;span style=&quot;white-space: pre;&quot;&gt;&amp;nbsp;&amp;nbsp;&amp;nbsp;&amp;nbsp;&lt;/span&gt;&lt;/span&gt;t07 = call printInt, 1&lt;/font&gt;&lt;/div&gt;&lt;div&gt;&lt;font face=&quot;Courier New&quot;&gt;126:&lt;span style=&quot;&quot;&gt;&lt;span style=&quot;white-space: pre;&quot;&gt;&amp;nbsp;&amp;nbsp;&amp;nbsp;&amp;nbsp;&lt;/span&gt;&lt;/span&gt;param d2&lt;/font&gt;&lt;/div&gt;&lt;div&gt;&lt;font face=&quot;Courier New&quot;&gt;127:&lt;span style=&quot;&quot;&gt;&lt;span style=&quot;white-space: pre;&quot;&gt;&amp;nbsp;&amp;nbsp;&amp;nbsp;&amp;nbsp;&lt;/span&gt;&lt;/span&gt;t08 = call printInt, 1&lt;/font&gt;&lt;/div&gt;&lt;div&gt;&lt;font face=&quot;Courier New&quot;&gt;128:&lt;span style=&quot;&quot;&gt;&lt;span style=&quot;white-space: pre;&quot;&gt;&amp;nbsp;&amp;nbsp;&amp;nbsp;&amp;nbsp;&lt;/span&gt;&lt;/span&gt;param d3&lt;/font&gt;&lt;/div&gt;&lt;div&gt;&lt;font face=&quot;Courier New&quot;&gt;129:&lt;span style=&quot;&quot;&gt;&lt;span style=&quot;white-space: pre;&quot;&gt;&amp;nbsp;&amp;nbsp;&amp;nbsp;&amp;nbsp;&lt;/span&gt;&lt;/span&gt;t09 = call printInt, 1&lt;/font&gt;&lt;/div&gt;&lt;div&gt;&lt;font face=&quot;Courier New&quot;&gt;130:&lt;span style=&quot;&quot;&gt;&lt;span style=&quot;white-space: pre;&quot;&gt;&amp;nbsp;&amp;nbsp;&amp;nbsp;&amp;nbsp;&lt;/span&gt;&lt;/span&gt;param _s1&lt;/font&gt;&lt;/div&gt;&lt;div&gt;&lt;font face=&quot;Courier New&quot;&gt;131:&lt;span style=&quot;&quot;&gt;&lt;span style=&quot;white-space: pre;&quot;&gt;&amp;nbsp;&amp;nbsp;&amp;nbsp;&amp;nbsp;&lt;/span&gt;&lt;/span&gt;t10 = call printStr, 1&lt;/font&gt;&lt;/div&gt;&lt;div&gt;&lt;font face=&quot;Courier New&quot;&gt;132:&lt;span style=&quot;&quot;&gt;&lt;span style=&quot;white-space: pre;&quot;&gt;&amp;nbsp;&amp;nbsp;&amp;nbsp;&amp;nbsp;&lt;/span&gt;&lt;/span&gt;t11 = d1 - d3&lt;/font&gt;&lt;/div&gt;&lt;div&gt;&lt;font face=&quot;Courier New&quot;&gt;133:&lt;span style=&quot;&quot;&gt;&lt;span style=&quot;white-space: pre;&quot;&gt;&amp;nbsp;&amp;nbsp;&amp;nbsp;&amp;nbsp;&lt;/span&gt;&lt;/span&gt;m = t11 * 99&amp;nbsp;&lt;/font&gt;&lt;/div&gt;&lt;div&gt;&lt;font face=&quot;Courier New&quot;&gt;134:&lt;span style=&quot;&quot;&gt;&lt;span style=&quot;white-space: pre;&quot;&gt;&amp;nbsp;&amp;nbsp;&amp;nbsp;&amp;nbsp;&lt;/span&gt;&lt;/span&gt;if m != p goto 136&amp;nbsp; (B8)&amp;nbsp; &amp;nbsp; &amp;nbsp;&amp;nbsp;&lt;/font&gt;&lt;/div&gt;" style="text;html=1;align=left;verticalAlign=middle;resizable=0;points=[];autosize=1;strokeColor=none;fillColor=none;" parent="x57_89_cDRPmzMDyBT9k-54" vertex="1">
          <mxGeometry x="12" y="5" width="300" height="190" as="geometry" />
        </mxCell>
        <mxCell id="x57_89_cDRPmzMDyBT9k-56" value="" style="group" parent="1" vertex="1" connectable="0">
          <mxGeometry x="585" y="570" width="220" height="80" as="geometry" />
        </mxCell>
        <mxCell id="x57_89_cDRPmzMDyBT9k-29" value="" style="whiteSpace=wrap;html=1;" parent="x57_89_cDRPmzMDyBT9k-56" vertex="1">
          <mxGeometry x="10" y="30" width="210" height="50" as="geometry" />
        </mxCell>
        <mxCell id="x57_89_cDRPmzMDyBT9k-28" value="&lt;font face=&quot;Courier New&quot;&gt;135: return m&amp;nbsp; &amp;nbsp; &amp;nbsp; &amp;nbsp;;L7&lt;/font&gt;" style="text;html=1;align=left;verticalAlign=middle;resizable=0;points=[];autosize=1;strokeColor=none;fillColor=none;" parent="x57_89_cDRPmzMDyBT9k-56" vertex="1">
          <mxGeometry x="20" y="40" width="190" height="30" as="geometry" />
        </mxCell>
        <mxCell id="x57_89_cDRPmzMDyBT9k-30" value="B7:" style="text;html=1;align=center;verticalAlign=middle;resizable=0;points=[];autosize=1;strokeColor=none;fillColor=none;" parent="x57_89_cDRPmzMDyBT9k-56" vertex="1">
          <mxGeometry width="40" height="30" as="geometry" />
        </mxCell>
        <mxCell id="x57_89_cDRPmzMDyBT9k-55" style="edgeStyle=orthogonalEdgeStyle;rounded=0;orthogonalLoop=1;jettySize=auto;html=1;exitX=1;exitY=0.5;exitDx=0;exitDy=0;entryX=0;entryY=0.5;entryDx=0;entryDy=0;" parent="1" target="x57_89_cDRPmzMDyBT9k-29" edge="1">
          <mxGeometry relative="1" as="geometry">
            <mxPoint x="595" y="607.0000000000001" as="targetPoint" />
            <mxPoint x="535" y="700" as="sourcePoint" />
          </mxGeometry>
        </mxCell>
        <mxCell id="x57_89_cDRPmzMDyBT9k-58" style="edgeStyle=orthogonalEdgeStyle;rounded=0;orthogonalLoop=1;jettySize=auto;html=1;exitX=1;exitY=0.5;exitDx=0;exitDy=0;entryX=0;entryY=0.5;entryDx=0;entryDy=0;" parent="1" target="x57_89_cDRPmzMDyBT9k-33" edge="1">
          <mxGeometry relative="1" as="geometry">
            <mxPoint x="605" y="777" as="targetPoint" />
            <mxPoint x="535" y="700" as="sourcePoint" />
          </mxGeometry>
        </mxCell>
        <mxCell id="x57_89_cDRPmzMDyBT9k-59" value="" style="group" parent="1" vertex="1" connectable="0">
          <mxGeometry x="585" y="707" width="260" height="110" as="geometry" />
        </mxCell>
        <mxCell id="x57_89_cDRPmzMDyBT9k-33" value="" style="whiteSpace=wrap;html=1;" parent="x57_89_cDRPmzMDyBT9k-59" vertex="1">
          <mxGeometry x="10" y="30" width="250" height="80" as="geometry" />
        </mxCell>
        <mxCell id="x57_89_cDRPmzMDyBT9k-32" value="&lt;div&gt;&lt;font face=&quot;Courier New&quot;&gt;136:&lt;span style=&quot;white-space: pre;&quot;&gt;&amp;nbsp;&amp;nbsp;&amp;nbsp;&amp;nbsp;&lt;/span&gt;param m&amp;nbsp; &amp;nbsp; &amp;nbsp; &amp;nbsp; &amp;nbsp; &amp;nbsp;;L8&lt;/font&gt;&lt;/div&gt;&lt;div&gt;&lt;font face=&quot;Courier New&quot;&gt;137:&lt;span style=&quot;&quot;&gt;&lt;span style=&quot;white-space: pre;&quot;&gt;&amp;nbsp;&amp;nbsp;&amp;nbsp;&amp;nbsp;&lt;/span&gt;&lt;/span&gt;t12 = call kt, 1&lt;/font&gt;&lt;/div&gt;&lt;div&gt;&lt;font face=&quot;Courier New&quot;&gt;138:&lt;span style=&quot;&quot;&gt;&lt;span style=&quot;white-space: pre;&quot;&gt;&amp;nbsp;&amp;nbsp;&amp;nbsp;&amp;nbsp;&lt;/span&gt;&lt;/span&gt;return t12&lt;/font&gt;&lt;/div&gt;" style="text;html=1;align=left;verticalAlign=middle;resizable=0;points=[];autosize=1;strokeColor=none;fillColor=none;" parent="x57_89_cDRPmzMDyBT9k-59" vertex="1">
          <mxGeometry x="20" y="40" width="230" height="60" as="geometry" />
        </mxCell>
        <mxCell id="x57_89_cDRPmzMDyBT9k-34" value="B8:" style="text;html=1;align=center;verticalAlign=middle;resizable=0;points=[];autosize=1;strokeColor=none;fillColor=none;" parent="x57_89_cDRPmzMDyBT9k-59" vertex="1">
          <mxGeometry width="40" height="30" as="geometry" />
        </mxCell>
        <mxCell id="_GaenFlvqUhkblWDrfGJ-1" value="" style="endArrow=classic;html=1;rounded=0;exitX=0;exitY=0.5;exitDx=0;exitDy=0;" edge="1" parent="1" source="x57_89_cDRPmzMDyBT9k-13">
          <mxGeometry width="50" height="50" relative="1" as="geometry">
            <mxPoint x="80" y="370" as="sourcePoint" />
            <mxPoint x="200" y="370" as="targetPoint" />
            <Array as="points">
              <mxPoint x="200" y="240" />
            </Array>
          </mxGeometry>
        </mxCell>
      </root>
    </mxGraphModel>
  </diagram>
</mxfile>
